<?xml version="1.0" encoding="utf-8"?>
<!-- Generator: Adobe Illustrator 27.5.0, SVG Export Plug-In . SVG Version: 6.00 Build 0)  -->
<svg version="1.1" id="Layer_1" xmlns="http://www.w3.org/2000/svg" xmlns:xlink="http://www.w3.org/1999/xlink" x="0px" y="0px"
	 viewBox="0 0 450 302.564" style="enable-background:new 0 0 450 302.564;" xml:space="preserve">
<g>
	<path style="fill:#C3DE00;" d="M385.359,202.792c1.017-2.489,1.529-5.17,0.348-6.996c-2.401,0.026-6.053,2.525-7.685,4.891
		c1.329-2.837,2.636-5.592,3.534-8.644c0.718-2.44,3.718-9.725,0.602-12.124c-5.918-4.556-11.395,14.819-12.564,17.585
		c-0.467-1.348-1.039-3.43-2.427-4.116c-0.887,1.504-1.283,3.872-1.217,6.233c-22.255-3.495-43.834-5.858-67.837-2.112
		c-16.868,2.633-33.409,6.226-50.26,8.676c-1.966-3.619-9.045-4.415-12.087-1.1c-0.142-1.708-1.837-4.861-4.098-4.954
		c-2.762-0.113-3.04,2.919-3.833,4.573c-3.053-2.001-4.965-7.934-8.803-8.37c-1.962,2.851,0.115,8.695,2.838,12.643
		c-18.229,1.729-36.409,4.086-54.629,5.91c-19.46,1.948-35.169,2.048-53.993-2.149c-4.419-0.985-8.868-1.947-13.336-2.848
		c1.25-1.464,2.277-3.17-0.077-4.512c-2.315-1.319-6.064,0.601-7.791,1.962c1.162-1.92,2.037-4.824-0.652-5.381
		c-2.573-0.532-5.94,2.097-8.064,4.973c-1.583-0.239-3.166-0.466-4.751-0.674c-11.781-1.549-24.223-2.292-36.472-2.012
		c-0.07-0.234-0.157-0.445-0.239-0.607c-0.99-1.953-2.556-5.266-5.349-5.579c-4.384-0.492-2.993,3.469-0.81,6.429
		c-4.115,0.219-8.193,0.554-12.197,1.028c-6.771,0.802-16.662,3.05-23.51,3.106v93.937l450,0.003v-93.94
		C436.564,208.822,405.028,206,385.359,202.792z"/>
	<path style="fill:#892F1E;" d="M450,215.574c-14.586,1.579-27.441,4.836-35.286,6.186c-41.716,7.179-82.849,14.612-126.109,17.03
		c-41.522,2.32-88.095,3.378-129.525-1.891c-31.867-4.053-63.528-8.956-95.032-13.869c-22.323-3.481-39.65-9.336-64.047-7.455
		v86.987l450,0.003V215.574z"/>
	<path style="fill:#A1B703;" d="M450,214.169c-2.995,0.202-7.93,0.894-13.066,1.745c1.153-5.287,3.412-10.349,2.053-15.954
		c-1.374-5.669-5.667-3.339-7.893,0.332c-2.434,4.014-2.067,7.723-3.171,11.891c0.24-4.376-0.166-8.693-4.863-7.86
		c-4.697,0.832-1.999,8.553,0.872,13.882c-3.611,0.659-6.823,1.254-9.08,1.648c-41.698,7.285-84.703,11.841-127.963,14.258
		c-31.728,1.773-64.858,2.826-97.206,0.875c-0.949-1.671-5.215-1.347-6.684-1.407c4.119-2.827-3.873-3.952-5.616-1.467
		c-0.876-2.298-0.91-11.298-3.684-11.651c-4.814-0.612-2.741,9.784-2.25,11.704c-1.894-0.88-7.3-5.185-9.192-4.569
		c-2.81,0.915-1.276,3.076,1.01,5.057c-1.086-0.129-2.172-0.26-3.255-0.398c-31.867-4.053-63.181-9.477-94.685-14.39
		c-22.323-3.481-51.534-4.82-65.325-3.695v14.09c0,0,9.791-1.806,14.238-0.706c3.642,0.9,10.695,3.769,12.798,6.989
		c1.175,1.8-0.814,4.579,0.409,6.243c1.924,2.619,6.324,3.556,10.814,3.884c-2.96,2.184-12.751,9.708-9.556,13.566
		c3.306,3.993,13.934-4.088,17.177-4.976c0.039,5.218,2.494,15.203,10.975,10.16c6.315-3.755,5.513-11.026,3.884-17.775
		c6.18,0.704,12.277,1.836,18.394,3.337c7.293,1.789,14.192,4.777,21.778,3.034c2.089-0.48,6.813-1.842,7.986-3.503
		c0.65-0.922,0-3.601,0.202-3.818c5.226-5.613,22.136-4.646,30.559-3.628c11.509,1.391,22.42,7.288,33.469,5.807
		c7.945-1.064,12.218-2.294,18.62,0.74c1.302,0.617,2.128,2.566,3.597,3.314c2.673,1.362,7.251,0.827,10.184,0.877
		c7.744,0.13,15.409-1.375,23.107-0.988c4.039,0.203,26.236-0.732,27.734-1.21c7.682-2.455,14.851-7.35,22.946-8.778
		c7.298-1.287,11.376,2.234,18.204,3.509c14.039,2.622,28.181-1.527,41.529-4.88c3.334-0.837,6.031-1.371,8.549-1.658
		c-2.646,2.723-4.628,5.987-3.709,8.355c2.799,0.715,5.217-1.859,7.434-3.121c0.055,1.986-0.969,8.842,2.084,9.639
		c2.504,0.654,5.03-5.062,5.727-6.864c0.319,1.118,0.115,2.357,0.559,3.556c0.705,1.903,5.096,7.13,7.627,6.789
		c4.349-0.586,0.764-10.862-1.004-12.444c1.341,1.431,6.73,2.521,7.666,0.602c0.559-1.146-1.022-3.669-2.371-5.422
		c9.147-0.051,18.923-1.528,26.791-4.043c5.834-1.865,5.692-2.734,6.083-7.617c15.046-0.725,30.458,1.9,45.517,1.034
		C449.999,216.737,450.001,214.169,450,214.169z"/>
	<path style="fill:#803412;" d="M0,230.686c6.458,0.208,11.957-1.546,18.997,0.976c7.039,2.522,2.814,9.741,6.334,11.002
		c3.52,1.261,5.631,3.152,5.631,3.152s-13.375,10.087-6.335,14.499c7.039,4.413,19.71-4.413,19.71-4.413s0.704,12.608,9.151,10.717
		c8.447-1.891,12.671-11.978,9.151-18.912c21.822,5.674,31.677,9.456,39.421,6.934c7.743-2.521,9.151-6.934,9.151-9.456
		c0-2.522,16.895-5.674,37.309-0.63c20.414,5.043,25.342,5.674,30.269,4.413c4.928-1.261,9.855-1.261,14.079,3.152
		c4.224,4.413,41.532,1.261,41.532,1.261s-0.007,21.184,11.988,4.191c11.967,3.152,14.058,5.896,16.17,3.374
		c2.112-2.522-6.336-10.087-6.336-10.087s19.71-10.087,24.638-9.456c4.927,0.631,13.375,6.304,21.822,6.304
		c8.447,0,31.677-3.783,40.829-7.565c-4.224,6.934-0.704,10.087,5.631,5.674c-1.408,8.826,4.224,13.239,9.151,5.043
		c2.816,6.934,15.487,14.499,11.967-3.783c7.039,1.261,7.743-2.522,4.224-6.934c9.151,2.521,27.454-1.261,30.269-5.674
		c2.816-4.413,1.408-6.304,1.408-6.304s41.995,2.592,43.837,2.522v71.879L0,302.561V230.686z"/>
	<g>
		<g>
			<path style="fill:#A64B25;" d="M0,275.017c0,0,8.412-0.753,12.397-1.178c12.1-1.289,24.172-3.702,36.644-2.351
				c7.567,0.819,15.08,1.243,22.798,1.497c10.447,0.344,21.159,2.238,31.48,2.175c12.39-0.076,25.072-0.529,37.448-0.929
				c12.945-0.418,24.634-4.509,37.463-4.478c10.503,0.026,19.707,0.74,29.857,2.344c5.777,0.913,10.984,1.436,16.908,1.613
				c6.028,0.18,11.365,1.624,17.2,2.245c14.842,1.579,27.501-0.882,41.745-3.266c9.941-1.664,20.069-2.531,30.054-4.05
				c8.292-1.261,12.634-1.958,21.001-0.775c9.969,1.41,22.596,2.203,32.64,0.897c17.197-2.236,33.132-0.536,50.54-0.242
				c8.701,0.147,12.499,1.718,20.571,4.98c3.259,1.317,8.642,1.762,11.253,1.519v-6.641c-5.925-0.47-10.448-0.995-13.707-1.96
				c-11.549-3.416-9.659-9.733-17.691-8.277c-12.815,2.324-25.765,3.94-38.721,5.911c-9.781,1.488-21.29,3.913-31.478,3.708
				c-9.212-0.185-16.293-4.073-25.688-4.219c-8.686-0.136-17.35-0.132-25.821,1.178c-20.354,3.15-38.736,8.516-60.265,6.969
				c-10.651-0.765-20.783-2.432-31.164-3.875c-9.953-1.383-20.07,0.333-30.074-0.326c-8.432-0.556-16.41-3.296-24.75-4.299
				c-8.794-1.058-17.761-2.022-26.732-2.133c-12.195-0.151-23.741,2.802-35.89,3.19c-9.038,0.289-15.761,0.352-24.282,2.646
				c-8.751,2.356-15.36,0.338-24.118,0.364c-4.501,0.013-9.556,0.495-13.909,1.123c-7.95,1.146-13.584,1.717-21.577,0.463
				C3.177,268.69,0,268.376,0,268.376V275.017z"/>
		</g>
		<g>
			<path style="fill:#A64B25;" d="M130.772,295.786c-7.742,3.005-16.636,5.188-25.598,6.767h29.169
				c3.897-0.674,7.671-1.499,11.539-2.284c6.484-1.316,12.281-2.566,19.123-2.844c8.817-0.359,18.57,0.003,26.943-1.64
				c4.339-0.852,8.842-1.512,13.343-2.207c11.308-1.747,23.067-3.198,34.545-4.452c4.095-0.447,8.287-0.559,12.414-1.077
				c4.444-0.557,8.321-1.823,12.829-2.231c14.238-1.286,29.206-0.933,43.604-0.932c10.278,0.001,19.376,1.39,29.755,0.677
				c14.254-0.979,28.616-1.225,42.951-2.172c15.304-1.011,30.495-0.897,45.488,1.362c6.117,0.921,17.669,1.23,23.124,0.312v-2.677
				c-5.171,0.907-7.997,0.434-11.98-0.107c-9.317-1.266-18.611-3.136-28.178-3.557c-13.984-0.615-28.323,1.338-42.23,2.047
				c-13.339,0.679-26.893,1.848-40.252,2.113c-4.551,0.09-5.472-0.653-8.921-1.702c-2.857-0.869-5.306-0.85-8.67-0.774
				c-15.636,0.355-31.149,2.595-46.767,2.996c-9.5,0.244-17.361,1.129-26.272,3.292c-4.797,1.164-9.352,1.602-14.44,1.888
				c-15.607,0.879-31.264,3.214-46.931,3.514c-11.639,0.224-19.457-1.878-29.469-5.115c-8.166-2.64-17.893-4.046-26.776-5.527
				c-12.045-2.008-29.92-1.063-41.316,2.072c-4.777,1.314-8.09,1.861-13.362,2.146c-11.393,0.616-22.503,2.491-34,1.644
				c-7.953-0.586-12.47-1.649-20.456-0.649c-2.088,0.261-5.326,0.763-9.978,1.878v3.132c16.395-4.518,25.608-0.926,32.575,1.388
				c14.8,4.917,30.572,0.099,45.035-2.714c8.346-1.623,18.221-2.824,27.012-2.706c6.812,0.091,16.846,0.634,23.087,2.181
				C133.224,291.195,136.086,293.723,130.772,295.786z"/>
		</g>
	</g>
	<path style="fill:#A64B25;" d="M413.643,287.721c-19.96-1.598-39.815-1.334-59.681,0.515c-27.25,2.537-54.712,4.47-82.055,6.58
		c-11.408,0.88-22.759,1.488-33.939,3.27c-4.402,0.701-8.828,1.778-12.817,3.13c-0.893,0.302-2.44,0.774-4.05,1.337H243.8
		c5.582-0.793,11.241-1.365,16.23-2.036c15.63-2.102,31.991-2.853,47.818-4.352c23.826-2.255,48.411-4.255,71.943,0.234
		c5.747,1.097,18.299,2.811,22.393,2.953c10.956,0.378,23.677-1.072,47.815-7.672v-3.132
		C433.012,292.945,425.576,288.677,413.643,287.721z"/>
	<path style="fill:#A64B25;" d="M235.105,269.295c4.218,2.36,16.191,1.313,26.046,0
		C271.006,267.982,228.065,265.356,235.105,269.295z"/>
	<g>
		<path style="fill:#A64B25;" d="M164.764,288.53c3.196,1.563,7.306,1.476,11.215,1.468c5.49-0.011,10.933-0.312,16.366-0.782
			c5.419-0.47,10.825-0.997,16.235-1.503c5.789-0.542,11.651-1.024,17.13-2.368c1.006-0.247,0.87-1.125-0.257-1.179
			c-9.545-0.451-19.391,1.075-28.788,1.96c-5.273,0.497-10.566,0.996-15.87,1.349c-4.318,0.287-10.568,1.1-14.712-0.009
			C165.069,287.195,163.697,288.008,164.764,288.53z"/>
	</g>
	<g>
		<path style="fill:#A64B25;" d="M231.482,285.045c1.577-0.034,3.107-0.22,4.669-0.351c1.481-0.125,2.83-0.214,4.171-0.654
			c0.688-0.226,0.537-0.93-0.219-1.04c-2.714-0.396-6.35,0.197-8.891,0.807C230.215,284.046,230.254,285.072,231.482,285.045z"/>
	</g>
	<g>
		<path style="fill:#A64B25;" d="M127.738,292.005c-4.846-1.664-10.25-2.46-15.757-2.687c-5.537-0.228-11.987-0.214-17.195,1.116
			c-1.21,0.309-1.598,1.575,0,1.78c5.024,0.646,10.252,0.102,15.338,0.17c5.607,0.076,10.883,0.557,16.165,1.758
			C128.305,294.6,129.58,292.637,127.738,292.005z"/>
	</g>
	<g>
		<path style="fill:#A64B25;" d="M88.79,290.572c-2.932,0.097-6.804-0.005-9.273,1.117c-0.949,0.431-0.877,1.341,0.331,1.575
			c2.96,0.573,6.502-0.281,9.357-0.788C90.849,292.184,90.593,290.513,88.79,290.572z"/>
	</g>
	<g>
		<path style="fill:#A64B25;" d="M163.932,263.54c4.652,1.425,9.4,2.138,14.568,2.521c5.181,0.383,10.93,0.82,15.954-0.291
			c1.017-0.225,1.096-1.129,0-1.335c-4.693-0.882-9.813-0.729-14.654-1.029c-5.174-0.321-10.244-0.782-15.43-0.869
			C163.538,262.523,163.152,263.302,163.932,263.54z"/>
	</g>
	<g>
		<path style="fill:#A64B25;" d="M378.952,261.022c-4.729,0.623-9.618,0.997-14.055,2.286c-0.872,0.253-0.408,1.092,0.475,1.09
			c5.051-0.016,9.65-1.283,14.172-2.504C380.378,261.669,379.757,260.916,378.952,261.022z"/>
	</g>
	<g>
		<path style="fill:#A64B25;" d="M401.899,276.624c4.961,0.252,10.199,0.643,15.147,0.403c1.012-0.049,1.628-0.956,0.562-1.29
			c-4.886-1.53-10.87-1.406-15.965-0.292C400.599,275.674,400.803,276.569,401.899,276.624z"/>
	</g>
	<g>
		<path style="fill:#A64B25;" d="M421.458,277.462c0.798,0.341,1.518,0.626,2.421,0.85c0.845,0.21,1.732,0.556,2.649,0.359
			c0.638-0.137,1.005-0.585,0.636-0.972c-0.523-0.547-1.554-0.648-2.469-0.837c-0.947-0.196-1.846-0.257-2.837-0.317
			C421.008,276.492,420.877,277.213,421.458,277.462z"/>
	</g>
	<g>
		<path style="fill:#A64B25;" d="M397.089,276.104c-2.682-0.038-6.573-0.035-8.846,0.979c-0.885,0.395-0.844,1.289,0.313,1.49
			c2.701,0.471,6.297-0.203,8.934-0.625C399.162,277.68,398.776,276.128,397.089,276.104z"/>
	</g>
	<g>
		<path style="fill:#A64B25;" d="M65.085,278.952c2.731-0.503,5.679-0.589,8.343-1.2c0.595-0.136,0.765-0.776,0-0.861
			c-2.993-0.329-6.049,0.35-8.804,1.022C63.612,278.161,63.991,279.154,65.085,278.952z"/>
	</g>
	<g>
		<path style="fill:#A64B25;" d="M65.425,283.576c8.253-1.599,17.057-2.104,25.22-3.815c0.77-0.161,0.966-1.006,0-1.098
			c-9.141-0.871-17.947,1.316-25.868,3.956C63.942,282.898,64.51,283.753,65.425,283.576z"/>
	</g>
	<path style="fill:#B4AAA6;" d="M127.075,302.021c-4.482-4.997-10.945-10.903-12.74-17.336c-1.732-6.204,1.367-12.978,2.416-19.012
		c1.296-7.453-0.588-15.325-0.259-22.92c-3.344,0.656-5.28,1.579-5.28,2.432c0,1.274-0.363,3.031-1.718,4.784
		c3.769,1.862-1.515,12.645-3.848,22.685c-3.172,13.651-6.667,29.9-6.667,29.9h28.568
		C127.388,302.376,127.233,302.197,127.075,302.021z"/>
	<g>
		<path style="fill:#803412;" d="M157.015,266.767c-2.57-0.908-4.514-1.604-7.54-1.89c-2.791-0.264-5.082-0.067-7.671,0.607
			c-0.945,0.246-1.067,1.054,0,1.276c4.902,1.019,9.617,0.921,14.673,1.239C157.56,268.068,157.881,267.073,157.015,266.767z"/>
	</g>
	<g>
		<path style="fill:#803412;" d="M134.23,264.782c-0.709-0.39-1.418-0.77-2.195-0.714c-0.719,0.052-1.293,0.519-1.848,1.122
			c-0.323,0.351-0.164,1.035,0.121,1.299c0.522,0.482,1.019,0.875,1.65,0.999c0.67,0.132,1.327,0.037,2.002,0.047
			C135.178,267.552,135.237,265.336,134.23,264.782z"/>
	</g>
	<g>
		<path style="fill:#803412;" d="M390.769,265.762c5.289-0.072,10.633-1.26,15.732-2.055c5.199-0.81,10.529-1.341,15.193-3.036
			c0.93-0.338,0.473-1.164-0.525-1.204c-5.416-0.218-10.59,0.854-15.8,1.688c-5.078,0.813-10.674,1.428-15.287,3.03
			C388.911,264.592,389.422,265.781,390.769,265.762z"/>
	</g>
	<g>
		<path style="fill:#803412;" d="M421.056,264.284c0.443,0.137,0.884,0.336,1.356,0.4c0.453,0.062,0.967-0.02,1.445-0.042
			c1.391-0.064,2.235-2.889,0.926-3.072c-0.448-0.063-0.904-0.196-1.382-0.168c-0.498,0.029-1.039,0.18-1.551,0.274
			C420.896,261.849,420.237,264.032,421.056,264.284z"/>
	</g>
	<path style="fill:#A64B25;" d="M0,282.388v2.677c0,0,6.513-0.954,9.514-1.236c6.423-0.604,12.97-0.687,19.447-0.436
		c6.056,0.235,12.059,1.144,18.15,0.885c2.698-0.115,5.384-0.375,7.958-0.896c3-0.608,4.797-1.356,7.023-2.725
		c0.955-0.587-0.061-1.394-1.204-1.286c-6.685,0.631-13.074,1.858-19.957,1.509c-6.406-0.324-12.645-0.988-19.108-0.795
		c-6.254,0.187-12.505,0.778-18.558,1.774C2.246,282.028,0,282.388,0,282.388z"/>
	<path style="fill:#A64B25;" d="M450,246.753c-7.293,0.853-14.737,1.847-21.922,3.003c-8.008,1.288-15.911,2.809-23.719,4.505
		c-7.301,1.586-15.065,3.381-21.185,6.366c-0.533,0.26-0.105,0.92,0.578,0.867c7.545-0.59,14.903-2.369,22.106-3.852
		c7.847-1.615,15.797-3.039,23.799-4.326c6.666-1.072,13.582-2.015,20.343-2.827V246.753z"/>
	<path style="fill:#938B87;" d="M109.493,249.969c-1.326,1.715-3.603,3.425-7.433,4.673c-7.743,2.522-17.598-1.261-39.421-6.934
		c1.523,3.001,1.594,6.591,0.502,9.853c0.388,2.137,0.72,4.381,0.906,6.538c0.704,8.195,21.822,38.456,21.822,38.456h13.109
		c0,0,1.976-13.571,5.481-27.423C107.717,262.258,112.204,256.553,109.493,249.969z"/>
	<path style="fill:#938B87;" d="M406.439,230.521c-0.163,0.98-0.624,2.285-1.685,3.947c-2.816,4.413-21.118,8.195-30.269,5.674
		c1.938,2.43,2.586,4.663,1.61,5.974c3.04,6.293,6.837,15.211,6.837,20.504c0,8.826-14.296,35.934-14.296,35.934h32.836
		c0,0,15.25-22.065,15.25-34.673C416.721,258.247,409.736,239.046,406.439,230.521z"/>
	<path style="fill:#938B87;" d="M282.948,241.881c-0.749-0.228-1.449-0.397-2.087-0.479c-4.928-0.63-24.638,9.456-24.638,9.456
		s8.447,7.565,6.336,10.087c-2.112,2.522-4.203-0.222-16.17-3.374c-11.995,16.493-11.988-4.191-11.988-4.191
		s-29.816,2.519-39.155-0.101c0,0,10.997,16.492,11.701,33.513c0.34,8.214,2.577,15.761,2.577,15.761h38.95
		c0,0,11.269-29.63,19.012-37.195C273.91,259.082,280.789,246.119,282.948,241.881z"/>
	<path style="fill:#892F1E;" d="M121.082,241.535c-10.515,1.84-2.277,9.986-9.871,18.78c-5.241,6.068-7.039,18.913-7.743,23.956
		c-0.704,5.043-4.224,18.282-4.224,18.282h-1.33c0,0,1.33-9.456,3.442-18.282c2.112-8.826,6.144-21.474,7.039-23.956
		c0.895-2.482,2.112-10.717-1.408-8.195l3.52-6.304C111.599,242.74,115.551,241.603,121.082,241.535z"/>
	<path style="fill:#A1B703;" d="M215.956,212.065c8.011,3.041,15.862,6.327,23.992,9.113c7.902,2.708,15.975,3.508,24.49,4.061
		c18.281,1.185,36.687,0.192,54.79-2.264c26.248-3.561,53.445-9.307,78.319-18.278c-4.118-0.609-8.175-1.251-12.181-1.905
		c1.017-2.489,2.976-5.51,0.348-6.996c-2.627-1.486-6.053,2.525-7.685,4.891c1.329-2.837,2.636-5.592,3.534-8.644
		c0.718-2.44,3.718-9.725,0.602-12.124c-5.918-4.556-11.396,14.819-12.564,17.585c-0.467-1.348,0.267-4.567-2.427-4.116
		c-2.694,0.451-1.283,3.872-1.217,6.233c-22.255-3.495-43.834-5.858-67.838-2.112c-16.868,2.633-33.409,6.226-50.26,8.676
		c-1.966-3.619-9.045-4.415-12.087-1.1c-0.142-1.708-1.837-4.861-4.098-4.954c-2.762-0.113-3.04,2.919-3.833,4.573
		c-3.053-2.001-4.353-9.747-8.803-8.37c-4.45,1.377,0.115,8.695,2.838,12.643c-3.697,0.351-7.391,0.732-11.084,1.124
		C212.537,210.757,214.262,211.422,215.956,212.065z"/>
	<path style="fill:#892F1E;" d="M183.054,248.27c12.192-0.123,22.166,24.69,22.485,32.219c0.351,8.286,3.187,22.065,3.187,22.065
		h8.506c0,0-10.285,0.469-10.285-23.956c0-6.216-11.263-25.847-11.263-25.847C192.268,248.682,188.181,246.792,183.054,248.27z"/>
	<path style="fill:#C3DE00;" d="M87.671,240.499c-2.379-0.861-10.927-9.213-6.679-11.093c2.583-1.143,6.46,5.781,9.032,6.066
		c0.085-2.392,0.923-8.516,4.982-8.047c2.909,0.337,2.81,3.989,2.804,5.938c1.789-1.358,6.926-3.36,7.127,0.307
		c0.107,1.954-2.844,3.714-3.756,5.374c-2.575,0.092-5.149,0.026-7.665,0.449C91.696,239.8,89.84,240.411,87.671,240.499z"/>
	<path style="fill:#C3DE00;" d="M270.502,221.271c0,0-5.987-8.324-2.805-11.002c3.182-2.678,4.479,4.174,6.141,6.604
		c-3.029-10.466,6.625-12.743,5.652-1.149c7.097-7.153,7.592,1.537,3.457,5.126L270.502,221.271z"/>
	<path style="fill:#A1B703;" d="M196.978,228.7c-1.509-0.547-9.107-4.128-6.53-6.717c1.886-1.895,6.628,2.827,8.28,3.481
		c-1.537-3.316-6.707-21.258,1.735-16.857c4.115,2.145,4.83,11.4,5.023,14.862c1.633-3.566,7.895-5.316,6.545,0.173
		c2.572-1.773,6.282-1.791,6.814,1.899C215.45,228.835,204.119,229.096,196.978,228.7z"/>
	<g>
		<path style="fill:#C3DE00;" d="M28.949,221.444c2.628-2.601-0.882-3.253-1.95-2.112c0.793-2.538,2.395-7.024-0.781-7.677
			c-3.175-0.654-2.499,5.958-2.183,8.066c-1.198-0.774-1.705-3.306-3.474-2.74c-1.769,0.565,0.28,3.292,1.647,4.181l10.981,1.143
			C33.514,219.764,30.81,219.651,28.949,221.444z"/>
	</g>
	<path style="fill:#A1B703;" d="M382.565,212.407c1.786-0.305,2.981,2.579,3.707,3.589c-0.687-2.893,1.232-8.129,3.179-7.673
		c1.947,0.456,1.816,4.631,2.51,6.95c-0.251-2.702,1.795-8.377,4.583-7.341c2.788,1.036,1.187,6.237,1.083,8.682
		c0.239-3.326,5.217-2.824,3.73,0.306c2.136-1.781,5.205-1.572,4.497,1.598c-2.847,0.536-5.732,0.027-8.607,0.244
		c-3.2,0.241-14.273,1.635-14.273,1.635S379.839,212.872,382.565,212.407z"/>
	<path style="fill:#C3DE00;" d="M321.254,209.949c0.044-0.775,0.38-2.321-0.654-2.488c-0.605-0.098-1.164,0.455-1.555,1.078
		c0.785-2.764,1.898-9.13-1.552-9.13c-3.45,0-2.26,8.793-0.771,11.081c-2.085-0.846-4.017-4.085-6.559-2.199
		c-2.542,1.885,2.804,3.756,4.72,4.37l10.177,0.179c0.284-0.463,0.875-1.623,0.812-2.32
		C325.661,208.224,322.154,207.734,321.254,209.949z"/>
	<path style="fill:#A64B25;" d="M13.294,250.74c5.73-0.15,14.944-4.629,17.042-5.423c-0.406-0.303-1.005-0.715-1.771-1.156
		c-2.771,0.717-13.397,4.312-18.051,3.693c-2.104-0.28-3.059-1.861-10.513-1.102v3.736C7.084,249.819,6.959,250.906,13.294,250.74z"
		/>
	<path style="fill:#A1B703;" d="M136.287,228.633c1.339-1.036,0.794-4.964-1.049-5.382c-2.917-0.661-3.398,2.761-3.197,4.452
		c-1.548-4.1,2.39-13.258-4.786-14.292c-7.176-1.034-0.843,13.024,2.763,15.836l8.698,1.336
		C141.303,229.619,138.766,226.371,136.287,228.633z"/>
	<path style="fill:#A1B703;" d="M58.533,205.174c-3.434-0.075-1.432,9.424-2.71,11.788c-0.844-1.057-0.933-3.186-2.193-3.989
		c-1.593-1.016-3.272,0.296-3.332,1.941c-0.093,2.524,2.083,2.628,3.652,3.803l4.464,1.177c1.25-1.99,2.351-3.755,2.869-6.138
		C61.673,211.966,62.335,205.257,58.533,205.174z"/>
	<path style="fill:#892F1E;" d="M286.588,243.219c0,0,7.647,3.227,9.055,6.379c1.408,3.152-0.704,4.413,0,8.826
		c0.704,4.413,4.224,9.456,4.224,9.456s-2.816-8.826-2.112-11.348c0.704-2.522,0.704-5.043,2.112-6.304
		c1.408-1.261,18.152-4.088,18.152-4.088l-25.192-1.585L286.588,243.219z"/>
	<path style="fill:#892F1E;" d="M318.773,246.023c0,0,2.917-0.207,4.324,1.054c1.408,1.261,2.816,5.043,2.816,5.043
		s-1.222-6.176,0.797-7.501C328.729,243.294,318.773,246.023,318.773,246.023z"/>
	<path style="fill:#892F1E;" d="M181.613,248.405c0,0-8.455,1.823-10.567,3.715c-2.112,1.891-3.52,4.413-3.52,6.304
		s0.487,6.651,0.244,8.053c-0.244,1.403-0.244,4.555-0.244,7.077c0,2.522,1.408,4.413,1.408,4.413s-3.492-2.078-2.816-6.935
		c0.676-4.856,0.704-10.087,0-11.978c-0.704-1.891,2.816-6.304,2.112-8.195c-0.704-1.891-3.853-2.633-3.853-2.633l13.004-0.52
		L181.613,248.405z"/>
	<path style="fill:#892F1E;" d="M24.626,240.142v-4.413l-1.832-0.835c0,0,0.424,6.509-2.392,7.77
		c-2.816,1.261-4.928,5.043-6.335,10.717c-0.107,0.43-0.168,0.856-0.197,1.276c0,0-2.619,5.028-2.619,7.55
		c0,2.522,1.408,5.674,1.408,5.674s-0.704-3.782,0-6.304c0.704-2.522,1.888-2.596,2.704-1.298c0.001,0.001,0.002,0.002,0.002,0.002
		c1.406,2.483,3.323,4.346,3.63,5.078c2.112,5.043,0,9.456,0,9.456s2.112-3.783,2.112-6.935s-3.52-6.304-4.928-10.087
		c-1.408-3.782,2.816-12.608,5.632-13.869c2.816-1.261,5.882-0.238,5.882-0.238L24.626,240.142z"/>
	<path style="fill:#892F1E;" d="M417.857,228.164c6.608,1.892,7.311,7.565,6.608,10.717c-0.704,3.152-0.257,11.517-0.257,11.517
		s0.257-10.886,2.369-12.778c2.112-1.891-1.408-5.674-1.408-7.565c0-1.892,7.843-1.892,7.843-1.892H417.857z"/>
	<path style="fill:#B4AAA6;" d="M63.142,257.56c-1.431,4.276-4.861,7.987-9.654,9.06c-0.84,0.188-1.6,0.228-2.294,0.156
		c1.041,5.745,4.826,11.2,5.111,16.937c0.301,6.077-2.162,11.737-5.222,17.034c-0.34,0.589-0.707,1.193-1.085,1.807h35.872
		c0,0-21.118-30.26-21.822-38.456C63.862,261.94,63.53,259.696,63.142,257.56z"/>
	<path style="fill:#B4AAA6;" d="M376.095,246.116L376.095,246.116c-0.796,1.07-2.67,1.527-5.834,0.961
		c3.52,18.282-9.151,10.717-11.967,3.783c-4.928,8.195-10.559,3.782-9.151-5.043c-1.543,1.075-2.917,1.697-4.054,1.929
		c-0.698,2.015-1.486,3.994-2.339,5.897c-1.88,4.199-3.981,8.669-6.797,12.433c-2.239,2.993-5.182,5.387-7.671,8.214
		c-3.836,4.358-7.955,9.044-12.855,12.483c-4.133,2.901-8.9,4.371-13.679,6.154c-6.613,2.467-12.146,6.79-18.459,9.627h85.347
		c0,0,14.296-27.108,14.296-35.934C382.932,261.326,379.136,252.409,376.095,246.116z"/>
	<g>
		<g>
			<path style="fill:#517300;" d="M403.763,231.676c-5.574,1.769-10.836,2.964-16.846,2.964c-5.524,0-10.717-0.673-15.957-2.197
				c-6.138-1.786-11.348-2.06-17.732-0.901c-9.013,1.636-17.704,5.157-26.58,7.447c-5.55,1.432-10.773,3.564-16.217,5.081
				c-3.087,0.86-6.777,0.222-9.961,0.327c-0.599,0.02-1.201,0.075-1.803,0.139c13.66,2.196,27.396-1.816,40.379-5.078
				c3.334-0.838,6.031-1.371,8.549-1.658c-2.646,2.723-4.628,5.987-3.709,8.355c2.799,0.715,5.217-1.859,7.434-3.121
				c0.055,1.986-0.969,8.842,2.084,9.639c2.505,0.654,5.03-5.063,5.727-6.864c0.319,1.118,0.115,2.357,0.559,3.556
				c0.705,1.903,5.097,7.13,7.628,6.789c4.349-0.586,0.764-10.862-1.004-12.444c1.341,1.431,6.73,2.521,7.666,0.602
				c0.559-1.146-1.022-3.669-2.371-5.422c9.147-0.051,18.923-1.528,26.791-4.043C401.743,233.779,403.12,233.034,403.763,231.676z"
				/>
			<path style="fill:#517300;" d="M100.91,252.017c2.089-0.48,6.813-1.842,7.986-3.503c0.027-0.038,0.048-0.083,0.071-0.127
				c-3.524,0.923-6.832,2.402-10.959,2.223c-4.133-0.18-6.798-1.133-10.47-2.51c-3.51-1.315-7.488-1.791-11.162-2.735
				c-5.254-1.35-10.384-3.462-15.576-4.707c-2.242-0.538-5.259,0.422-7.308-0.306c-0.903-0.321-1.028-1.408-1.966-1.683
				c-0.945-0.278-2.769,0.375-3.742,0.474c-0.007-1.211,0.384-3.091-1.077-3.782c-1.584-0.749-2.858,1.248-4.213,1.64
				c-0.809-1.861-0.153-7.956-3.577-7.81c-3.734,0.16-0.901,4.114-1.512,5.702c-1.488,3.866-7.296-1.077-9.326-2.632
				c-3.412-2.612-8.906-4.942-13.573-5.914c-2.088-0.435-6.987-1.345-14.506-1.345v3.259c0,0,11.042-0.672,15.49,0.427
				c3.643,0.9,9.089,2.879,11.193,6.1c1.175,1.8-0.46,4.335,0.762,5.999c1.924,2.619,6.324,3.556,10.814,3.884
				c-2.96,2.184-12.751,9.708-9.556,13.567c3.306,3.993,13.934-4.088,17.177-4.977c0.039,5.218,2.494,15.203,10.975,10.16
				c6.315-3.756,5.513-11.026,3.884-17.775c6.18,0.704,12.277,1.836,18.394,3.337C86.426,250.772,93.325,253.76,100.91,252.017z"/>
			<path style="fill:#517300;" d="M246.899,256.098c0,0,8.477,5.614,10.485,2.57c2.009-3.044-0.335-5.434-5.426-7.94
				c1.447-0.283,2.912-0.643,4.41-1.122c3.642-1.164,7.169-2.875,10.733-4.506c-3.071,0.37-6.012,0.5-9.161,0.5
				c-8.943,0-18.012-1.071-26.671,1.609c-2.262,0.7-4.188,1.703-6.573,1.964c-3.147,0.345-6.402,0.207-9.578,0.239
				c-4.636,0.047-9.529,0.603-14.041-0.536c-4.817-1.217-8.576-4.281-13.629-5.368c-6.806-1.463-13.548-1.188-20.438-1.779
				c-6.051-0.519-12.27-0.382-18.256-1.365c-3.263-0.536-6.465-1.18-9.792-1.198c-2.959-0.016-6.708-0.465-9.399,0.554
				c-0.408,0.154-0.818,0.354-1.229,0.575c4.243,0.054,8.322,0.409,11.323,0.772c11.509,1.391,22.42,7.288,33.469,5.807
				c7.945-1.065,12.218-2.293,18.62,0.74c1.302,0.617,2.128,2.566,3.597,3.314c2.673,1.362,7.251,0.827,10.184,0.877
				c7.744,0.13,15.409-1.375,23.107-0.988c4.039,0.203,7.837,0.552,11.583,0.68c-1.876,1.082-5.676,6.326-2.325,9.171
				C241.243,263.512,246.899,256.098,246.899,256.098z"/>
		</g>
		<path style="fill:#517300;" d="M428.163,227.861c7.226,0.434,14.647,0.816,21.837,0.402c0-1.181,0-2.261,0-3.261
			c-10.023,0-11.287,2.034-14.855,2.335C431.608,227.637,428.225,227.857,428.163,227.861z"/>
	</g>
	<path style="fill:#892F1E;" d="M369.769,246.753c0,0,12.321,9.758,13.025,17.954c0.704,8.195-17.842,37.847-17.842,37.847h5.289
		c0,0,14.803-30.26,13.395-38.456c-1.408-8.195-7.977-22.237-7.977-22.237C375.577,245.977,373.675,246.016,369.769,246.753z"/>
	<g>
		<path style="fill:#D7ED34;" d="M28.42,218.794c0.628,0.407,1.094,1.211,1.051,1.861c0.044,0.006,0.086,0.003,0.129,0.005
			C30.409,219.389,29.448,218.777,28.42,218.794z"/>
		<path style="fill:#D7ED34;" d="M30.187,220.582c0.428-0.114,0.849-0.28,1.368-0.086c0.853,0.319,1.299,0.919,1.646,1.623
			C33.331,220.27,31.752,219.834,30.187,220.582z"/>
		<path style="fill:#D7ED34;" d="M23.764,215.453c0.509-1.13,1.402-1.96,2.676-1.615c1.03,0.279,1.297,1.893,1.242,3.226
			c0.619-2.34,0.889-4.925-1.463-5.409C24.405,211.281,23.849,213.279,23.764,215.453z"/>
		<path style="fill:#D7ED34;" d="M20.562,216.98c-0.708,0.227-0.799,0.801-0.571,1.464c0.095-0.198,0.148-0.444,0.313-0.596
			c0.149-0.137,0.375-0.212,0.564-0.258c0.421-0.101,0.876-0.05,1.285,0.073c0.122,0.037,0.225,0.088,0.326,0.142
			C21.989,217.168,21.426,216.703,20.562,216.98z"/>
	</g>
	<path style="fill:#D7ED34;" d="M33.662,200.114c0.291-0.207,0.576-0.376,0.765-0.484c1.236-0.709,3.11-0.059,4.34,0.472
		c0.614,0.265,1.194,0.615,1.727,1.026c-0.948-1.486-2.219-2.87-3.976-3.068C34.251,197.806,33.53,198.742,33.662,200.114z"/>
	<g>
		<path style="fill:#D7ED34;" d="M95.334,205.495c1.091,0.127,2.22,0.563,3.016,1.041c0.905,0.543,1.845,1.422,2.247,2.469
			c0.837-1.235,1.13-2.549-0.762-3.627C98.574,204.66,96.888,204.906,95.334,205.495z"/>
		<path style="fill:#D7ED34;" d="M86.965,203.422c1.364-0.663,2.917-1.024,4.406-0.573c0.938,0.284,1.447,0.943,1.75,1.738
			c0.178-1.227-0.194-2.31-1.729-2.627c-1.48-0.306-3.224,0.438-4.842,1.67C86.688,203.559,86.828,203.488,86.965,203.422z"/>
	</g>
	<g>
		<path style="fill:#D7ED34;" d="M80.992,229.406c-2.03,0.898-1.136,3.275,0.609,5.605c-0.134-1.342,0.544-2.379,2.676-2.45
			c1.371-0.046,2.41,0.822,3.489,1.569C85.498,232.096,82.895,228.564,80.992,229.406z"/>
		<path style="fill:#D7ED34;" d="M96.156,230.162c0.862,0.397,1.03,1.09,1.624,1.65c0.004,0.004,0.007,0.005,0.011,0.008
			c-0.088-1.902-0.54-4.135-2.784-4.395c-2.746-0.318-4.017,2.382-4.579,4.903c0.629-0.834,1.444-1.509,2.523-1.941
			C93.926,229.997,95.154,229.702,96.156,230.162z"/>
		<path style="fill:#D7ED34;" d="M101.146,239.046c0.012,0,0.024-0.001,0.036-0.001c0.912-1.66,3.862-3.42,3.756-5.374
			c-0.133-2.436-2.443-2.37-4.504-1.654c1.108,0.096,2.327,0.542,2.804,1.604c0.75,1.671-0.679,3.09-1.507,4.418
			C101.503,238.406,101.299,238.743,101.146,239.046z"/>
	</g>
	<path style="fill:#C3DE00;" d="M321.254,209.949c0.044-0.775,0.38-2.321-0.654-2.488c-0.605-0.098-1.164,0.455-1.555,1.078
		c0.785-2.764,1.898-9.13-1.552-9.13c-3.45,0-2.26,8.793-0.771,11.081c-2.085-0.846-4.017-4.085-6.559-2.199
		c-2.542,1.885,2.804,3.756,4.72,4.37l10.177,0.179c0.284-0.463,0.875-1.623,0.812-2.32
		C325.661,208.224,322.154,207.734,321.254,209.949z"/>
	<g>
		<path style="fill:#D7ED34;" d="M275.082,210.787c2.211-0.452,3.229,1.745,4.134,3.333c0.102-0.171,0.216-0.306,0.338-0.423
			c-0.212-7.609-5.864-7.178-6.277-1.321C273.585,211.591,274.139,210.979,275.082,210.787z"/>
		<path style="fill:#D7ED34;" d="M273.135,216.323c-0.062-0.323-0.113-0.682-0.147-1.056c-1.323-2.929-2.665-7.206-5.291-4.997
			c-1.567,1.319-0.909,4.008,0.162,6.397c0.098-0.298,0.197-0.547,0.272-0.686c0.542-1.015,1.326-1.679,2.516-1.309
			C271.485,214.932,272.457,215.811,273.135,216.323z"/>
		<path style="fill:#D7ED34;" d="M284.228,219.379c2.237-3.364,1.766-8.163-2.23-5.723c0.519,0.289,0.99,0.696,1.311,1.098
			C284.381,216.097,284.3,217.751,284.228,219.379z"/>
	</g>
	<g>
		<path style="fill:#D7ED34;" d="M321.254,209.949c0.044-0.775,0.38-2.321-0.654-2.488c-0.211-0.034-0.417,0.015-0.612,0.115
			c0.629,0.817,0.662,1.78,0.775,2.783c0.968-0.251,1.991-0.732,3.032-0.469c1.016,0.257,1.443,1.058,1.78,1.925
			c0.185-0.449,0.329-0.933,0.296-1.294C325.661,208.224,322.154,207.734,321.254,209.949z"/>
		<path style="fill:#D7ED34;" d="M310.163,208.292c-1.368,1.015-0.45,2.025,0.988,2.838c-0.315-1.032-0.11-2.258,1.068-2.56
			c0.422-0.109,0.91-0.186,1.403-0.198C312.558,207.689,311.437,207.347,310.163,208.292z"/>
		<path style="fill:#D7ED34;" d="M315.341,205.449c0.402-1.217,1.144-2.311,1.916-2.529c1.608-0.456,1.625,1.663,1.788,2.651
			c0.063,0.385,0.175,1.101,0.361,1.417c0.005,0.008,0.01,0.014,0.015,0.022c0.647-3.076,0.981-7.6-1.927-7.6
			C315.459,199.41,315.039,202.47,315.341,205.449z"/>
	</g>
	<g>
		<path style="fill:#B4CC03;" d="M420.99,210.058c0.588-1.27,1.352-3.437,2.74-4.037c0.864-0.374,2.461-0.463,3.507,0.054
			c-0.686-1.381-1.947-2.148-4.177-1.753c-2.599,0.46-2.932,3.031-2.226,6.138C420.881,210.318,420.932,210.183,420.99,210.058z"/>
		<path style="fill:#B4CC03;" d="M431.094,200.292c-0.574,0.948-0.989,1.878-1.308,2.801c0.38-0.663,0.8-1.327,1.443-1.712
			c1.058-0.632,3.167-0.722,4.3-0.276c2.192,0.863,3.243,2.627,3.739,4.694c0.223-1.9,0.205-3.834-0.281-5.838
			C437.613,194.292,433.32,196.621,431.094,200.292z"/>
	</g>
	<g>
		<path style="fill:#B4CC03;" d="M386.658,211.506c0.504-0.379,1.168-0.598,2.043-0.572c0.936,0.028,1.878,1.155,2.662,1.167
			c-0.301-1.802-0.711-3.497-1.911-3.779C388.36,208.067,387.277,209.6,386.658,211.506z"/>
		<path style="fill:#B4CC03;" d="M385.299,214.413c-0.691-1.09-1.591-2.201-2.734-2.006c-1.131,0.193-1.252,1.603-1.007,3.185
			c0.257-0.22,1.078-1.14,1.374-1.254C383.892,213.968,385.276,214.632,385.299,214.413z"/>
		<path style="fill:#B4CC03;" d="M402.181,216.353c1.789-0.408,2.647,0.877,3.675,2.155
			C406.47,215.737,404.19,215.236,402.181,216.353z"/>
		<path style="fill:#B4CC03;" d="M396.544,207.931c-1.582-0.588-2.925,0.986-3.745,2.952c0.218-0.241,0.475-0.458,0.84-0.594
			c0.934-0.347,2.007-0.206,2.815,0.382c1.006,0.733,1.059,1.882,1.554,2.858C398.309,211.18,398.409,208.624,396.544,207.931z"/>
		<path style="fill:#B4CC03;" d="M401.62,216.035c0.153-1.459-1.396-2.033-2.612-1.504
			C399.936,214.958,401.278,215.081,401.62,216.035z"/>
	</g>
	<g>
		<path style="fill:#B4CC03;" d="M379.183,184.949c2.18,0.876,2.713,3.917,2.695,6.106c0.998-3.021,3.054-9.005,0.287-11.136
			c-3.434-2.644-6.719,2.77-9.101,8.321C374.588,186.48,377.123,184.12,379.183,184.949z"/>
		<path style="fill:#B4CC03;" d="M382.386,196.17c0.991,0.082,1.933,0.595,2.534,1.401c0.907,1.215,0.551,2.738,0.979,4.002
			c0.99-2.192,2.025-4.528-0.185-5.778C384.676,195.209,383.513,195.482,382.386,196.17z"/>
		<path style="fill:#B4CC03;" d="M369.348,195.594c-0.128-1.271-0.443-2.497-2.174-2.207c-1.579,0.264-1.745,1.551-1.601,3.044
			c0.43-0.618,1.115-1.066,1.973-1.224C368.174,195.091,368.929,195.13,369.348,195.594z"/>
	</g>
	<g>
		<path style="fill:#B4CC03;" d="M219.299,200.276c1.545-0.924,3.661-0.612,5.318,0.068c-1.435-2.476-2.963-4.821-5.58-4.011
			c-2.264,0.701-2.193,2.941-1.219,5.491C218.128,201.208,218.611,200.688,219.299,200.276z"/>
		<path style="fill:#B4CC03;" d="M247.637,205.82c-1.989-2.95-7.538-3.768-10.797-1.634
			C239.57,203.425,245.494,204.54,247.637,205.82z"/>
		<path style="fill:#B4CC03;" d="M227.952,204.451c0.022,0.051,0.041,0.103,0.069,0.153c1.01-0.635,1.555-1.574,2.863-1.774
			c1.118-0.171,2.341,0.044,3.38,0.435c0.416,0.156,0.807,0.371,1.205,0.555c-0.601-1.664-2.022-3.617-3.795-3.689
			C229.045,200.022,228.665,202.761,227.952,204.451z"/>
	</g>
	<g>
		<path style="fill:#B4CC03;" d="M190.448,221.982c-1.25,1.256-0.104,2.745,1.578,4.008c-0.104-0.883,0.161-1.768,0.947-2.36
			c0.51-0.385,1.075-0.706,1.663-0.888C193.02,221.73,191.383,221.043,190.448,221.982z"/>
		<path style="fill:#B4CC03;" d="M213.618,222.826c0.059-0.002,0.117-0.004,0.171,0.001c1.227,0.117,2.567,0.687,3.48,1.514
			c0.467,0.424,0.86,0.953,1.24,1.494c0.119-0.096,0.232-0.194,0.336-0.296C218.416,222.563,215.918,222.001,213.618,222.826z"/>
		<path style="fill:#B4CC03;" d="M204.919,217.952c-0.61-3.783-1.852-7.989-4.456-9.346c-5.231-2.726-5.235,3.124-4.117,8.758
			c0.463-1.218,0.87-1.828,2.193-2.055c1.186-0.204,2.475-0.209,3.606,0.267C203.125,215.988,204.153,216.923,204.919,217.952z"/>
		<path style="fill:#B4CC03;" d="M207.049,221.485c0.975-0.053,2.417,0.388,3.093,0.498c0.799,0.13,1.092,0.83,1.728,1.023
			c0.083,0.025,0.18,0.031,0.281,0.031C212.732,219.349,209.33,219.585,207.049,221.485z"/>
	</g>
	<g>
		<path style="fill:#B4CC03;" d="M131.589,220.779c0.064,0.125,0.117,0.25,0.166,0.374c0.107-3.606-0.214-7.123-4.501-7.741
			c-3.37-0.486-3.76,2.357-2.853,5.8c0.718-1.09,1.945-1.776,3.435-1.378C129.361,218.242,130.872,219.376,131.589,220.779z"/>
		<path style="fill:#B4CC03;" d="M132.934,223.882c1.506-0.323,2.784,1.26,3.286,2.633c0.183,0.5,0.158,0.978,0.621,1.284
			c0.538-1.538-0.102-4.207-1.602-4.547C134.173,223.01,133.435,223.317,132.934,223.882z"/>
		<path style="fill:#B4CC03;" d="M137.388,227.963c0.353,0.01,0.729-0.075,1.055,0.089c0.486,0.247,0.885,0.797,1.339,1.069
			C139.634,228.294,138.605,227.561,137.388,227.963z"/>
	</g>
	<g>
		<path style="fill:#B4CC03;" d="M162.255,227.595c-1.694,0.552-1.803,1.557-1.127,2.702c0.991-1.251,4.354-0.845,5.483-0.637
			c0.425,0.078,0.846,0.175,1.258,0.294C165.74,228.598,163.378,227.229,162.255,227.595z"/>
		<path style="fill:#B4CC03;" d="M175.864,226.234c0.274,0.483,0.508,0.98,0.727,1.481c-0.469-3.281-1.124-7.031-2.895-7.256
			c-3.201-0.407-3.356,4.051-2.957,7.651c0.229-0.615,0.541-1.198,0.979-1.712C172.873,225.04,174.96,224.635,175.864,226.234z"/>
		<path style="fill:#B4CC03;" d="M188.493,234.713c0.373,0.039,0.696,0.032,0.978-0.012c-0.998-1.078-3.653-1.115-5.384-1.115
			C185.408,234.237,187.21,234.578,188.493,234.713z"/>
		<path style="fill:#B4CC03;" d="M178.676,231.168c1.009,0.225,2.145,0.148,3.09,0.637c0.595,0.308,0.921,0.827,1.417,1.23
			c0.082,0.067,0.182,0.125,0.274,0.187C185.915,231.104,181.293,230.104,178.676,231.168z"/>
	</g>
	<g>
		<path style="fill:#B4CC03;" d="M58.533,205.174c-2.24-0.049-2.167,3.974-2.2,7.435c0.523-1.182,1.305-2.287,2.034-2.759
			c1.494-0.967,2.433-0.022,3.213,1.249C61.664,208.511,61.185,205.232,58.533,205.174z"/>
		<path style="fill:#B4CC03;" d="M54.923,214.981c-0.294-0.803-0.633-1.587-1.292-2.007c-1.537-0.98-3.149,0.207-3.315,1.769
			C51.676,213.791,53.516,214.105,54.923,214.981z"/>
	</g>
</g>
</svg>
